PathFileType	4	(X/Y/Z)	/Users/itak/Documents/Research/Walk-IL/dataset/trc/00266_00009.trc
DataRate	CameraRate	NumFrames	NumMarkers	Units	OrigDataRate	OrigDataStartFrame	OrigNumFrames
100.000000	100.000000	4	54	mm	100.000000	105	421
Frame#	Time	RPSI			LPSI			L3			STRN			T10			C7			CLAV			RBAK			LBAK			LSHO			LUPA			LAEL			LAOL			LWTS			LWPS			LFRA			LIFD			LHPS			LHTS			RSHO			RUPA			RAEL			RAOL			RWPS			RFRA			RIFD			RHTS			RHPS			RBHD			LFHD			RFHD			LBHD			LHIP			RHIP			RASI			LASI			LKNE			LTHI			LANK			LTIP			LTOE			LMT1			LMT5			LHEE			RKNE			RTHI			RANK			RTIP			RTOE			RMT1			RMT5			RWTS			RHEE			*53			
		X1	Y1	Z1	X2	Y2	Z2	X3	Y3	Z3	X4	Y4	Z4	X5	Y5	Z5	X6	Y6	Z6	X7	Y7	Z7	X8	Y8	Z8	X9	Y9	Z9	X10	Y10	Z10	X11	Y11	Z11	X12	Y12	Z12	X13	Y13	Z13	X14	Y14	Z14	X15	Y15	Z15	X16	Y16	Z16	X17	Y17	Z17	X18	Y18	Z18	X19	Y19	Z19	X20	Y20	Z20	X21	Y21	Z21	X22	Y22	Z22	X23	Y23	Z23	X24	Y24	Z24	X25	Y25	Z25	X26	Y26	Z26	X27	Y27	Z27	X28	Y28	Z28	X29	Y29	Z29	X30	Y30	Z30	X31	Y31	Z31	X32	Y32	Z32	X33	Y33	Z33	X34	Y34	Z34	X35	Y35	Z35	X36	Y36	Z36	X37	Y37	Z37	X38	Y38	Z38	X39	Y39	Z39	X40	Y40	Z40	X41	Y41	Z41	X42	Y42	Z42	X43	Y43	Z43	X44	Y44	Z44	X45	Y45	Z45	X46	Y46	Z46	X47	Y47	Z47	X48	Y48	Z48	X49	Y49	Z49	X50	Y50	Z50	X51	Y51	Z51	X52	Y52	Z52	X53	Y53	Z53	X54	Y54	Z54	

106	1.05	-1054.084350585938	1046.410034179688	792.4932250976562	-1097.241455078125	1041.637329101562	679.9263305664062	-1083.324584960938	1129.00341796875	719.4890747070312	-841.3997802734375	1296.288696289062	618.966064453125	-1075.405883789062	1255.0947265625	720.6978759765625	-1001.610961914062	1511.719604492188	689.098388671875	-855.1724853515625	1415.811401367188	627.5089721679688	-1052.007202148438	1377.559692382812	788.6033935546875	-1065.049926757812	1478.605834960938	594.4923706054688	-1002.725158691406	1474.555419921875	508.96435546875	-1071.652587890625	1362.370483398438	447.8690795898438	-1090.022827148438	1152.740600585938	417.2785949707031	-1145.352905273438	1143.349487304688	485.1172485351562	-989.6508178710938	918.297119140625	454.0105895996094	-1037.777465820312	901.0377197265625	385.3421325683594	-1076.564575195312	1044.394409179688	400.5476989746094	-994.151123046875	723.0712280273438	449.2638549804688	-1022.517578125	812.684814453125	386.7846374511719	-966.0963134765625	815.5403442382812	426.5300903320312	-886.1239624023438	1466.8095703125	821.8191528320312	-880.44580078125	1406.299560546875	892.9620361328125	-893.4153442382812	1131.1640625	963.502685546875	-960.08154296875	1120.702514648438	894.857421875	-807.4688720703125	900.7316284179688	961.0668334960938	-864.8244018554688	1062.30029296875	968.90185546875	-764.152099609375	723.890869140625	871.2612915039062	-735.3492431640625	797.3756103515625	880.3165893554688	-762.8788452148438	795.3095092773438	947.7929077148438	-905.8968505859375	1658.96630859375	731.5431518554688	-819.9760131835938	1695.955810546875	523.9278564453125	-752.2606811523438	1692.03271484375	597.6986083984375	-962.276123046875	1668.093139648438	602.82666015625	-1055.823120117188	966.958251953125	516.2455444335938	-923.8474731445312	1011.682312011719	857.7883911132812	-846.6341552734375	1045.730834960938	785.72119140625	-943.9598999023438	1011.079223632812	521.7760620117188	-954.85205078125	485.7582702636719	516.823974609375	-980.7196655273438	628.9955444335938	504.3347473144531	-1324.030151367188	190.4373931884766	619.5867919921875	-1128.700805664062	344.2611083984375	557.548828125	-1159.842895507812	51.03499221801758	602.3580932617188	-1198.583862304688	82.03981018066406	664.342041015625	-1247.339111328125	107.2590713500977	563.9559326171875	-1345.948486328125	230.3666534423828	684.0511474609375	-853.607421875	522	806.2962036132812	-849.2323608398438	791.1915283203125	845.475830078125	-960.3821411132812	40.12688064575195	850.5512084960938	-855.5704345703125	397.9067077636719	793.1528930664062	-792.41845703125	44.89928436279297	717.3672485351562	-860.8809814453125	36.76309967041016	703.7799682617188	-850.6304931640625	40.97087097167969	824.982421875	-785.529296875	913.1459350585938	880.2127685546875	-1042.254272460938	33.7357177734375	828.0418090820312	nan	nan	nan	
107	1.06	-1047.777709960938	1046.404052734375	792.76171875	-1092.190185546875	1041.86669921875	680.6116943359375	-1077.5517578125	1129.393676757812	720.3448486328125	-836.2561645507812	1296.162231445312	617.0328979492188	-1069.227294921875	1255.46337890625	721.5999145507812	-995.1284790039062	1511.914672851562	689.2301635742188	-849.735595703125	1415.6748046875	625.855224609375	-1044.606323242188	1377.754760742188	789.3282470703125	-1059.895141601562	1479.06005859375	595.4945068359375	-998.545166015625	1474.872802734375	509.1162414550781	-1068.4541015625	1362.833862304688	448.9952087402344	-1087.63330078125	1153.21435546875	418.7326965332031	-1142.068725585938	1143.897094726562	487.154296875	-986.6011352539062	918.898193359375	454.3720397949219	-1035.755249023438	901.4635009765625	386.3731079101562	-1074.3740234375	1044.801025390625	401.872314453125	-990.8754272460938	723.6508178710938	449.8157043457031	-1020.382934570312	813.1563110351562	387.6763000488281	-963.4053955078125	816.1522216796875	426.6372680664062	-878.1171875	1466.59716796875	820.503662109375	-871.541015625	1406.062377929688	891.5179443359375	-883.2113647460938	1131.028198242188	962.3975219726562	-950.8452758789062	1120.332397460938	894.939453125	-797.5132446289062	900.5839233398438	959.5654907226562	-854.54638671875	1062.164916992188	967.49609375	-756.1058959960938	723.2466430664062	869.8604125976562	-726.943359375	796.6365966796875	878.2046508789062	-753.3665161132812	795.0053100585938	946.1057739257812	-899.334716796875	1659.03955078125	730.3584594726562	-814.2783203125	1695.698364257812	522.3652954101562	-746.2721557617188	1691.714599609375	595.8530883789062	-956.2974243164062	1668.1904296875	601.8832397460938	-1052.345581054688	967.5758056640625	516.2638549804688	-917.0023193359375	1011.139770507812	856.7809448242188	-840.2781372070312	1045.51025390625	784.11572265625	-940.38623046875	1011.543701171875	521.1668090820312	-944.4020385742188	487.3714904785156	514.0799560546875	-972.6756591796875	630.2158203125	502.3046264648438	-1310.430541992188	190.2973327636719	622.0319213867188	-1117.1572265625	345.5027770996094	557.3858642578125	-1144.989868164062	53.37122344970703	598.503662109375	-1182.640625	82.55657196044922	662.0484008789062	-1234.423706054688	108.7800369262695	563.0934448242188	-1331.14990234375	228.74169921875	687.9085693359375	-850.3894653320312	521.181396484375	805.2681884765625	-843.7818603515625	790.4718017578125	843.9242553710938	-960.3469848632812	40.17937469482422	850.4893188476562	-853.2978515625	397.1312866210938	792.3436279296875	-792.3873901367188	44.84076690673828	717.2848510742188	-860.9133911132812	36.69505310058594	703.6912841796875	-850.6458740234375	41.0396842956543	824.899169921875	-776.6375122070312	912.6530151367188	878.37646484375	-1042.284790039062	33.84358596801758	828.0551147460938	nan	nan	nan	
108	1.07	-1041.49755859375	1046.395629882812	792.8931274414062	-1087.161010742188	1042.111938476562	681.2249755859375	-1071.80078125	1129.773071289062	721.12890625	-831.1942138671875	1296.015014648438	615.017333984375	-1063.06005859375	1255.810791015625	722.4471435546875	-988.6600341796875	1512.098388671875	689.2559814453125	-844.3507690429688	1415.52685546875	624.10498046875	-1037.187622070312	1377.935546875	789.9599609375	-1054.77978515625	1479.477783203125	596.4534301757812	-994.424560546875	1475.169677734375	509.2074890136719	-1065.337524414062	1363.247314453125	450.1336669921875	-1085.396362304688	1153.637573242188	420.3531494140625	-1138.725463867188	1144.364624023438	489.4832763671875	-983.6076049804688	919.4179077148438	454.5210876464844	-1034.03857421875	901.8368530273438	387.3401794433594	-1072.390869140625	1045.169067382812	403.283203125	-987.7117919921875	724.1713256835938	450.0767822265625	-1018.564819335938	813.58203125	388.419189453125	-960.93994140625	816.6876220703125	426.417724609375	-870.1239624023438	1466.380126953125	819.0659790039062	-862.6395263671875	1405.811401367188	889.935302734375	-873.0408935546875	1130.865234375	961.0524291992188	-941.5930786132812	1119.950317382812	894.7510375976562	-787.6463012695312	900.405517578125	957.9187622070312	-844.3011474609375	1062.001098632812	965.8529663085938	-748.1682739257812	722.5032958984375	868.4959106445312	-718.6487426757812	795.7614135742188	876.0836181640625	-744.0062255859375	794.635986328125	944.3824462890625	-892.777099609375	1659.109008789062	729.0609741210938	-808.5728149414062	1695.380981445312	520.6856079101562	-740.2704467773438	1691.331298828125	593.8853149414062	-950.3070678710938	1668.29248046875	600.8233642578125	-1048.930053710938	968.2401733398438	516.2102661132812	-910.1922607421875	1010.565734863281	855.667724609375	-834.0235595703125	1045.248291015625	782.4526977539062	-936.84619140625	1012.023986816406	520.532958984375	-934.1016845703125	489.0667724609375	511.1622924804688	-964.6956176757812	631.5609130859375	500.0902709960938	-1295.98876953125	188.9732818603516	624.0426025390625	-1105.325317382812	346.2152709960938	556.9278564453125	-1128.893676757812	55.32139205932617	595.00634765625	-1165.709594726562	82.62127685546875	659.8667602539062	-1220.316528320312	109.2951812744141	562.2294921875	-1315.804321289062	226.0835418701172	691.1031494140625	-847.2473754882812	520.3726806640625	804.208740234375	-838.386962890625	789.7371215820312	842.2689819335938	-960.3161010742188	40.24469757080078	850.4392700195312	-851.083740234375	396.3876342773438	791.5443725585938	-792.349365234375	44.78579330444336	717.2193603515625	-860.9378051757812	36.64002990722656	703.6148681640625	-850.65478515625	41.08999633789062	824.8268432617188	-767.8244018554688	912.0634765625	876.419677734375	-1042.313598632812	33.9575080871582	828.077392578125	nan	nan	nan	
109	1.08	-1035.25146484375	1046.395874023438	792.9073486328125	-1082.156005859375	1042.363159179688	681.7648315429688	-1066.062744140625	1130.14306640625	721.8297729492188	-826.2098388671875	1295.842651367188	612.9238891601562	-1056.899658203125	1256.132690429688	723.2308959960938	-982.202880859375	1512.27001953125	689.1734619140625	-839.012939453125	1415.368286132812	622.2587890625	-1029.747802734375	1378.103515625	790.4972534179688	-1049.690185546875	1479.850952148438	597.3610229492188	-990.3558959960938	1475.44091796875	509.2359008789062	-1062.294067382812	1363.601684570312	451.2788391113281	-1083.307739257812	1154.005737304688	422.1218872070312	-1135.327880859375	1144.759521484375	492.0766906738281	-980.6856689453125	919.8599243164062	454.46826171875	-1032.6162109375	902.1610107421875	388.2477111816406	-1070.609130859375	1045.499633789062	404.7754211425781	-984.6822509765625	724.6239624023438	450.0449523925781	-1017.048889160156	813.9656372070312	389.017822265625	-958.7080688476562	817.14404296875	425.8841552734375	-862.1473999023438	1466.164916992188	817.5066528320312	-853.7469482421875	1405.5546875	888.2152709960938	-862.9384155273438	1130.677734375	959.4671630859375	-932.3521118164062	1119.571411132812	894.2484741210938	-777.8788452148438	900.2052612304688	956.1198120117188	-834.1328125	1061.817016601562	963.9900512695312	-740.3233032226562	721.68212890625	867.1622314453125	-710.4500122070312	794.7837524414062	873.94482421875	-734.790283203125	794.2213745117188	942.6084594726562	-886.230224609375	1659.172607421875	727.6527709960938	-802.8685302734375	1695.013793945312	518.8876953125	-734.2587280273438	1690.890625	591.7946166992188	-944.3113403320312	1668.390380859375	599.6482543945312	-1045.58837890625	968.9307861328125	516.1085205078125	-903.4154052734375	1009.983093261719	854.4464111328125	-827.8642578125	1044.943603515625	780.7173461914062	-933.3245849609375	1012.526733398438	519.8599853515625	-923.94091796875	490.8349609375	508.0487060546875	-956.7920532226562	633.020751953125	497.6903076171875	-1280.730834960938	186.5395355224609	625.5518798828125	-1093.197021484375	346.4113464355469	556.114501953125	-1111.652221679688	56.79470825195312	591.87158203125	-1147.865234375	82.25083160400391	657.8145141601562	-1205.04638671875	108.7706756591797	561.3721313476562	-1299.9287109375	222.5049591064453	693.5742797851562	-844.2047119140625	519.584228515625	803.1497192382812	-833.0488891601562	788.9987182617188	840.525634765625	-960.2864379882812	40.31958770751953	850.4047241210938	-848.96044921875	395.6757507324219	790.7765502929688	-792.3095092773438	44.73519515991211	717.1726684570312	-860.9517822265625	36.59710311889648	703.5538940429688	-850.65576171875	41.1158561706543	824.7697143554688	-759.0956420898438	911.3958129882812	874.3374633789062	-1042.338745117188	34.07226181030273	828.1116943359375	nan	nan	nan	
